<svg xmlns="http://www.w3.org/2000/svg" xmlns:xlink="http://www.w3.org/1999/xlink" width="803" zoomAndPan="magnify" viewBox="0 0 602.25 369.749989" height="493" preserveAspectRatio="xMidYMid meet" version="1.2"><defs><clipPath id="0fea20a2ad"><path d="M 0 0.105469 L 601.5 0.105469 L 601.5 369.394531 L 0 369.394531 Z M 0 0.105469 "/></clipPath></defs><g id="e243da3494"><g clip-rule="nonzero" clip-path="url(#0fea20a2ad)"></g><g style="fill:#000000;fill-opacity:1;"><g transform="translate(84.607019, 264.401671)"><path style="stroke:none" d="M 132.109375 0 L 76.90625 0 L 76.90625 -65.59375 C 76.90625 -69.132812 76.019531 -71.789062 74.25 -73.5625 C 72.476562 -75.332031 70.398438 -76.21875 68.015625 -76.21875 C 65.628906 -76.21875 63.550781 -75.367188 61.78125 -73.671875 C 60.007812 -71.984375 59.125 -69.367188 59.125 -65.828125 L 59.125 0 L 2.3125 0 L 2.3125 -68.140625 C 2.3125 -80.296875 4.195312 -90.53125 7.96875 -98.84375 C 11.738281 -107.164062 16.816406 -113.867188 23.203125 -118.953125 C 29.597656 -124.035156 36.679688 -127.726562 44.453125 -130.03125 C 52.234375 -132.34375 60.128906 -133.5 68.140625 -133.5 C 74.609375 -133.5 81 -132.378906 87.3125 -130.140625 C 93.625 -127.910156 99.394531 -124.179688 104.625 -118.953125 C 109.09375 -123.878906 114.597656 -127.492188 121.140625 -129.796875 C 127.679688 -132.109375 134.109375 -133.34375 140.421875 -133.5 C 148.585938 -133.5 156.597656 -132.304688 164.453125 -129.921875 C 172.304688 -127.535156 179.425781 -123.757812 185.8125 -118.59375 C 192.207031 -113.4375 197.328125 -106.703125 201.171875 -98.390625 C 205.023438 -90.078125 206.953125 -79.992188 206.953125 -68.140625 L 206.953125 0 L 150.125 0 L 150.125 -65.828125 C 150.125 -69.367188 149.203125 -71.984375 147.359375 -73.671875 C 145.515625 -75.367188 143.4375 -76.21875 141.125 -76.21875 C 138.8125 -76.21875 136.726562 -75.332031 134.875 -73.5625 C 133.03125 -71.789062 132.109375 -69.132812 132.109375 -65.59375 Z M 132.109375 0 "/></g></g><g style="fill:#ffffff;fill-opacity:1;"><g transform="translate(261.753813, 215.156398)"><path style="stroke:none" d="M 52.132812 -48.074219 C 52.84375 -48.464844 53.238281 -48.878906 53.324219 -49.324219 C 53.425781 -49.886719 53.296875 -50.40625 52.933594 -50.878906 C 52.882812 -50.941406 52.777344 -51.003906 52.613281 -51.070312 C 52.105469 -51.265625 51.382812 -51.367188 50.441406 -51.367188 L 50.320312 -51.367188 L 50.199219 -51.371094 C 49.296875 -51.40625 48.746094 -51.3125 48.554688 -51.09375 C 48.039062 -50.5 47.769531 -49.808594 47.75 -49.027344 C 47.730469 -48.234375 47.957031 -47.535156 48.433594 -46.925781 C 48.441406 -46.914062 48.476562 -46.898438 48.542969 -46.871094 C 48.890625 -46.730469 49.410156 -46.660156 50.105469 -46.660156 L 103.996094 -46.660156 L 103.996094 6.304688 L 50.105469 6.304688 C 42.511719 6.304688 35.398438 4.871094 28.769531 2.003906 C 22.207031 -0.835938 16.398438 -4.78125 11.347656 -9.832031 C 6.296875 -14.882812 2.351562 -20.691406 -0.492188 -27.257812 C -3.359375 -33.882812 -4.792969 -40.996094 -4.792969 -48.59375 C -4.792969 -58.519531 -2.546875 -67.601562 1.949219 -75.828125 C 6.472656 -84.113281 12.890625 -90.761719 21.207031 -95.777344 C 29.53125 -100.792969 39.308594 -103.367188 50.539062 -103.492188 C 56.25 -103.492188 61.960938 -102.949219 67.671875 -101.867188 C 73.726562 -100.722656 79.429688 -98.554688 84.773438 -95.375 C 90.433594 -92.003906 95.105469 -87.09375 98.792969 -80.640625 C 100.488281 -77.675781 101.707031 -74.222656 102.457031 -70.28125 C 103.164062 -66.539062 103.425781 -62.710938 103.230469 -58.792969 C 103.027344 -54.644531 102.167969 -50.746094 100.65625 -47.101562 C 98.925781 -42.929688 96.226562 -39.648438 92.558594 -37.257812 L 90.988281 -36.234375 L 55.148438 -36.234375 Z M 58.167969 -37.003906 L 55.148438 -42.539062 L 55.148438 -48.84375 L 89.113281 -48.84375 L 89.113281 -42.539062 L 85.671875 -47.820312 C 87.160156 -48.792969 88.273438 -50.164062 89.007812 -51.933594 C 89.960938 -54.230469 90.503906 -56.722656 90.636719 -59.410156 C 90.777344 -62.332031 90.589844 -65.171875 90.066406 -67.929688 C 89.582031 -70.492188 88.839844 -72.640625 87.84375 -74.382812 C 85.253906 -78.917969 82.082031 -82.300781 78.324219 -84.539062 C 74.253906 -86.960938 69.921875 -88.605469 65.324219 -89.476562 C 60.390625 -90.414062 55.507812 -90.878906 50.679688 -90.878906 C 41.738281 -90.78125 34.082031 -88.8125 27.722656 -84.976562 C 21.351562 -81.136719 16.449219 -76.070312 13.015625 -69.78125 C 9.550781 -63.4375 7.820312 -56.375 7.820312 -48.59375 C 7.820312 -42.738281 8.90625 -37.296875 11.082031 -32.265625 C 13.289062 -27.171875 16.347656 -22.667969 20.265625 -18.75 C 24.179688 -14.835938 28.683594 -11.773438 33.777344 -9.570312 C 38.808594 -7.394531 44.25 -6.304688 50.105469 -6.304688 L 97.691406 -6.304688 L 97.691406 0 L 91.382812 0 L 91.382812 -40.355469 L 97.691406 -40.355469 L 97.691406 -34.046875 L 50.105469 -34.046875 C 45.027344 -34.046875 41.160156 -35.753906 38.496094 -39.164062 C 36.167969 -42.140625 35.050781 -45.53125 35.144531 -49.335938 C 35.234375 -53.148438 36.535156 -56.496094 39.046875 -59.375 C 41.878906 -62.628906 45.761719 -64.164062 50.683594 -63.972656 L 50.441406 -57.671875 L 50.441406 -63.976562 C 55.984375 -63.976562 60.140625 -62.179688 62.917969 -58.582031 C 65.578125 -55.132812 66.511719 -51.277344 65.722656 -47.019531 C 64.90625 -42.644531 62.390625 -39.304688 58.167969 -37.003906 Z M 58.167969 -37.003906 "/></g></g><g style="fill:#000000;fill-opacity:1;"><g transform="translate(261.753813, 215.156398)"><path style="stroke:none" d="M 55.15625 -42.546875 C 57.613281 -43.890625 59.066406 -45.765625 59.515625 -48.171875 C 59.960938 -50.578125 59.429688 -52.757812 57.921875 -54.71875 C 56.410156 -56.6875 53.914062 -57.671875 50.4375 -57.671875 C 47.53125 -57.785156 45.316406 -56.972656 43.796875 -55.234375 C 42.285156 -53.492188 41.5 -51.472656 41.4375 -49.171875 C 41.382812 -46.878906 42.054688 -44.835938 43.453125 -43.046875 C 44.859375 -41.253906 47.078125 -40.359375 50.109375 -40.359375 L 97.6875 -40.359375 L 97.6875 0 L 50.109375 0 C 43.378906 0 37.097656 -1.257812 31.265625 -3.78125 C 25.441406 -6.300781 20.285156 -9.800781 15.796875 -14.28125 C 11.316406 -18.769531 7.816406 -23.925781 5.296875 -29.75 C 2.773438 -35.582031 1.515625 -41.863281 1.515625 -48.59375 C 1.515625 -57.445312 3.503906 -65.515625 7.484375 -72.796875 C 11.460938 -80.085938 17.125 -85.945312 24.46875 -90.375 C 31.8125 -94.800781 40.523438 -97.070312 50.609375 -97.1875 C 55.878906 -97.1875 61.175781 -96.679688 66.5 -95.671875 C 71.820312 -94.660156 76.835938 -92.753906 81.546875 -89.953125 C 86.253906 -87.148438 90.175781 -83.003906 93.3125 -77.515625 C 94.65625 -75.160156 95.632812 -72.359375 96.25 -69.109375 C 96.875 -65.859375 97.101562 -62.519531 96.9375 -59.09375 C 96.769531 -55.675781 96.066406 -52.484375 94.828125 -49.515625 C 93.597656 -46.546875 91.691406 -44.222656 89.109375 -42.546875 Z M 55.15625 -42.546875 "/></g></g><g style="fill:#ffffff;fill-opacity:1;"><g transform="translate(299.33732, 265.654155)"><path style="stroke:none" d="M 96.175781 6.304688 L 49.683594 6.304688 L 49.683594 -47.753906 C 49.683594 -48.359375 49.632812 -48.824219 49.527344 -49.140625 C 49.511719 -49.1875 49.5 -49.214844 49.496094 -49.222656 C 49.519531 -49.179688 49.554688 -49.136719 49.597656 -49.09375 C 49.546875 -49.144531 49.503906 -49.183594 49.46875 -49.207031 L 49.484375 -49.203125 L 49.519531 -49.179688 C 49.46875 -49.179688 49.40625 -49.148438 49.335938 -49.082031 C 49.40625 -49.144531 49.460938 -49.210938 49.5 -49.277344 L 49.5 -49.261719 C 49.398438 -48.964844 49.351562 -48.519531 49.351562 -47.921875 L 49.351562 6.304688 L -4.625 6.304688 L -4.625 -49.601562 C -4.625 -59.367188 -3.0625 -67.6875 0.0585938 -74.570312 C 3.222656 -81.546875 7.527344 -87.199219 12.972656 -91.527344 C 18.261719 -95.734375 24.128906 -98.792969 30.570312 -100.707031 C 36.816406 -102.5625 43.160156 -103.492188 49.601562 -103.492188 C 55.03125 -103.492188 60.382812 -102.558594 65.660156 -100.691406 C 71.152344 -98.75 76.140625 -95.535156 80.625 -91.050781 L 76.167969 -86.59375 L 71.496094 -90.828125 C 75.460938 -95.203125 80.324219 -98.40625 86.089844 -100.441406 C 91.484375 -102.34375 96.8125 -103.359375 102.078125 -103.488281 L 102.152344 -103.492188 L 102.230469 -103.492188 C 108.796875 -103.492188 115.234375 -102.53125 121.550781 -100.613281 C 128.050781 -98.636719 133.941406 -95.515625 139.230469 -91.246094 C 144.644531 -86.875 148.960938 -81.21875 152.171875 -74.277344 C 155.363281 -67.382812 156.960938 -59.160156 156.960938 -49.601562 L 156.960938 6.304688 L 102.984375 6.304688 L 102.984375 -47.921875 C 102.984375 -48.488281 102.9375 -48.910156 102.839844 -49.183594 C 102.855469 -49.148438 102.910156 -49.082031 103.011719 -48.988281 C 102.875 -49.117188 102.78125 -49.179688 102.734375 -49.179688 C 102.75 -49.179688 102.777344 -49.1875 102.808594 -49.203125 C 102.757812 -49.179688 102.675781 -49.113281 102.558594 -49 C 102.597656 -49.039062 102.632812 -49.078125 102.65625 -49.121094 C 102.65625 -49.117188 102.648438 -49.101562 102.636719 -49.0625 C 102.535156 -48.769531 102.484375 -48.332031 102.484375 -47.753906 L 102.484375 6.304688 Z M 96.175781 -6.304688 L 96.175781 0 L 89.871094 0 L 89.871094 -47.753906 C 89.871094 -52.125 91.191406 -55.574219 93.832031 -58.105469 C 96.394531 -60.5625 99.363281 -61.792969 102.734375 -61.792969 C 106.050781 -61.792969 108.984375 -60.625 111.535156 -58.285156 C 114.242188 -55.800781 115.597656 -52.347656 115.597656 -47.921875 L 115.597656 0 L 109.292969 0 L 109.292969 -6.304688 L 150.65625 -6.304688 L 150.65625 0 L 144.347656 0 L 144.347656 -49.601562 C 144.347656 -57.308594 143.140625 -63.765625 140.730469 -68.980469 C 138.339844 -74.144531 135.199219 -78.292969 131.308594 -81.433594 C 127.292969 -84.675781 122.816406 -87.046875 117.882812 -88.546875 C 112.765625 -90.101562 107.546875 -90.878906 102.230469 -90.878906 L 102.230469 -97.1875 L 102.382812 -90.882812 C 98.453125 -90.785156 94.421875 -90.007812 90.289062 -88.550781 C 86.527344 -87.222656 83.378906 -85.15625 80.839844 -82.359375 L 76.394531 -77.449219 L 71.710938 -82.132812 C 68.570312 -85.273438 65.152344 -87.496094 61.453125 -88.804688 C 57.539062 -90.1875 53.589844 -90.878906 49.601562 -90.878906 C 44.382812 -90.878906 39.238281 -90.125 34.164062 -88.617188 C 29.285156 -87.167969 24.835938 -84.847656 20.824219 -81.65625 C 16.964844 -78.589844 13.871094 -74.488281 11.542969 -69.359375 C 9.171875 -64.132812 7.988281 -57.546875 7.988281 -49.601562 L 7.988281 0 L 1.679688 0 L 1.679688 -6.304688 L 43.042969 -6.304688 L 43.042969 0 L 36.738281 0 L 36.738281 -47.921875 C 36.738281 -52.292969 38.03125 -55.71875 40.621094 -58.195312 C 43.128906 -60.59375 46.09375 -61.792969 49.519531 -61.792969 C 52.996094 -61.792969 55.996094 -60.53125 58.515625 -58.011719 C 61.035156 -55.492188 62.296875 -52.070312 62.296875 -47.753906 L 62.296875 0 L 55.992188 0 L 55.992188 -6.304688 Z M 96.175781 -6.304688 "/></g></g><g style="fill:#000000;fill-opacity:1;"><g transform="translate(299.33732, 265.654155)"><path style="stroke:none" d="M 96.171875 0 L 55.984375 0 L 55.984375 -47.75 C 55.984375 -50.332031 55.335938 -52.265625 54.046875 -53.546875 C 52.765625 -54.835938 51.253906 -55.484375 49.515625 -55.484375 C 47.773438 -55.484375 46.257812 -54.863281 44.96875 -53.625 C 43.6875 -52.394531 43.046875 -50.492188 43.046875 -47.921875 L 43.046875 0 L 1.6875 0 L 1.6875 -49.59375 C 1.6875 -58.457031 3.054688 -65.914062 5.796875 -71.96875 C 8.546875 -78.019531 12.242188 -82.894531 16.890625 -86.59375 C 21.546875 -90.289062 26.703125 -92.976562 32.359375 -94.65625 C 38.023438 -96.34375 43.769531 -97.1875 49.59375 -97.1875 C 54.300781 -97.1875 58.953125 -96.375 63.546875 -94.75 C 68.148438 -93.125 72.359375 -90.40625 76.171875 -86.59375 C 79.421875 -90.175781 83.425781 -92.804688 88.1875 -94.484375 C 92.945312 -96.171875 97.628906 -97.070312 102.234375 -97.1875 C 108.171875 -97.1875 114 -96.316406 119.71875 -94.578125 C 125.4375 -92.835938 130.617188 -90.085938 135.265625 -86.328125 C 139.921875 -82.578125 143.648438 -77.675781 146.453125 -71.625 C 149.253906 -65.570312 150.65625 -58.226562 150.65625 -49.59375 L 150.65625 0 L 109.296875 0 L 109.296875 -47.921875 C 109.296875 -50.492188 108.617188 -52.394531 107.265625 -53.625 C 105.921875 -54.863281 104.410156 -55.484375 102.734375 -55.484375 C 101.054688 -55.484375 99.539062 -54.835938 98.1875 -53.546875 C 96.84375 -52.265625 96.171875 -50.332031 96.171875 -47.75 Z M 96.171875 0 "/></g></g><g style="fill:#000000;fill-opacity:1;"><g transform="translate(413.524895, 265.654155)"><path style="stroke:none" d="M 55.15625 -42.546875 C 57.613281 -43.890625 59.066406 -45.765625 59.515625 -48.171875 C 59.960938 -50.578125 59.429688 -52.757812 57.921875 -54.71875 C 56.410156 -56.6875 53.914062 -57.671875 50.4375 -57.671875 C 47.53125 -57.785156 45.316406 -56.972656 43.796875 -55.234375 C 42.285156 -53.492188 41.5 -51.472656 41.4375 -49.171875 C 41.382812 -46.878906 42.054688 -44.835938 43.453125 -43.046875 C 44.859375 -41.253906 47.078125 -40.359375 50.109375 -40.359375 L 97.6875 -40.359375 L 97.6875 0 L 50.109375 0 C 43.378906 0 37.097656 -1.257812 31.265625 -3.78125 C 25.441406 -6.300781 20.285156 -9.800781 15.796875 -14.28125 C 11.316406 -18.769531 7.816406 -23.925781 5.296875 -29.75 C 2.773438 -35.582031 1.515625 -41.863281 1.515625 -48.59375 C 1.515625 -57.445312 3.503906 -65.515625 7.484375 -72.796875 C 11.460938 -80.085938 17.125 -85.945312 24.46875 -90.375 C 31.8125 -94.800781 40.523438 -97.070312 50.609375 -97.1875 C 55.878906 -97.1875 61.175781 -96.679688 66.5 -95.671875 C 71.820312 -94.660156 76.835938 -92.753906 81.546875 -89.953125 C 86.253906 -87.148438 90.175781 -83.003906 93.3125 -77.515625 C 94.65625 -75.160156 95.632812 -72.359375 96.25 -69.109375 C 96.875 -65.859375 97.101562 -62.519531 96.9375 -59.09375 C 96.769531 -55.675781 96.066406 -52.484375 94.828125 -49.515625 C 93.597656 -46.546875 91.691406 -44.222656 89.109375 -42.546875 Z M 55.15625 -42.546875 "/></g></g><g style="fill:#000000;fill-opacity:1;"><g transform="translate(428.77683, 163.692687)"><path style="stroke:none" d="M 5.78125 -2.75 L 1.859375 -0.890625 L -8.03125 -21.734375 L -1.53125 -24.8125 L 10.40625 -10.765625 L 7.0625 -28.890625 L 13.609375 -32 L 23.5 -11.15625 L 19.578125 -9.296875 L 11.09375 -27.1875 L 14.609375 -6.9375 L 10.75 -5.109375 L -2.65625 -20.515625 Z M 5.78125 -2.75 "/></g></g><g style="fill:#000000;fill-opacity:1;"><g transform="translate(456.929407, 151.622329)"><path style="stroke:none" d="M 11.140625 0.1875 C 8.941406 0.238281 7.148438 -0.0859375 5.765625 -0.796875 C 4.378906 -1.503906 3.351562 -2.515625 2.6875 -3.828125 C 2.019531 -5.140625 1.671875 -6.664062 1.640625 -8.40625 L 1.328125 -23.09375 L 5.703125 -23.1875 L 6.015625 -8.5 C 6.035156 -7.550781 6.203125 -6.707031 6.515625 -5.96875 C 6.835938 -5.226562 7.363281 -4.65625 8.09375 -4.25 C 8.832031 -3.851562 9.816406 -3.671875 11.046875 -3.703125 C 12.296875 -3.722656 13.273438 -3.945312 13.984375 -4.375 C 14.691406 -4.8125 15.1875 -5.40625 15.46875 -6.15625 C 15.757812 -6.90625 15.894531 -7.753906 15.875 -8.703125 L 15.5625 -23.390625 L 19.9375 -23.484375 L 20.25 -8.796875 C 20.28125 -7.054688 19.992188 -5.515625 19.390625 -4.171875 C 18.796875 -2.835938 17.820312 -1.785156 16.46875 -1.015625 C 15.113281 -0.253906 13.335938 0.144531 11.140625 0.1875 Z M 11.140625 0.1875 "/></g></g><g style="fill:#000000;fill-opacity:1;"><g transform="translate(482.249041, 151.790645)"><path style="stroke:none" d="M 10.375 4.296875 C 9.332031 3.898438 8.320312 3.378906 7.34375 2.734375 C 6.375 2.097656 5.539062 1.328125 4.84375 0.421875 C 4.144531 -0.484375 3.664062 -1.53125 3.40625 -2.71875 C 3.144531 -3.90625 3.210938 -5.21875 3.609375 -6.65625 L 7.828125 -5.09375 C 7.679688 -3.988281 7.773438 -3.046875 8.109375 -2.265625 C 8.441406 -1.484375 8.929688 -0.84375 9.578125 -0.34375 C 10.222656 0.144531 10.921875 0.53125 11.671875 0.8125 C 12.796875 1.226562 13.820312 1.335938 14.75 1.140625 C 15.675781 0.953125 16.332031 0.34375 16.71875 -0.6875 C 17 -1.4375 16.972656 -2.109375 16.640625 -2.703125 C 16.304688 -3.304688 15.789062 -3.875 15.09375 -4.40625 C 14.394531 -4.9375 13.617188 -5.46875 12.765625 -6 C 11.953125 -6.53125 11.148438 -7.082031 10.359375 -7.65625 C 9.566406 -8.238281 8.875 -8.882812 8.28125 -9.59375 C 7.695312 -10.3125 7.316406 -11.113281 7.140625 -12 C 6.960938 -12.894531 7.085938 -13.910156 7.515625 -15.046875 C 8.035156 -16.441406 8.800781 -17.476562 9.8125 -18.15625 C 10.820312 -18.84375 11.992188 -19.210938 13.328125 -19.265625 C 14.660156 -19.328125 16.054688 -19.085938 17.515625 -18.546875 C 18.910156 -18.023438 20.132812 -17.289062 21.1875 -16.34375 C 22.238281 -15.40625 23 -14.273438 23.46875 -12.953125 C 23.945312 -11.628906 24.007812 -10.144531 23.65625 -8.5 L 19.5 -10.046875 C 19.664062 -11.296875 19.425781 -12.34375 18.78125 -13.1875 C 18.132812 -14.039062 17.253906 -14.675781 16.140625 -15.09375 C 15.117188 -15.46875 14.195312 -15.5625 13.375 -15.375 C 12.5625 -15.195312 12 -14.695312 11.6875 -13.875 C 11.4375 -13.207031 11.472656 -12.601562 11.796875 -12.0625 C 12.128906 -11.519531 12.628906 -11 13.296875 -10.5 C 13.972656 -10 14.707031 -9.484375 15.5 -8.953125 C 16.34375 -8.421875 17.164062 -7.847656 17.96875 -7.234375 C 18.78125 -6.617188 19.492188 -5.9375 20.109375 -5.1875 C 20.734375 -4.4375 21.132812 -3.582031 21.3125 -2.625 C 21.5 -1.675781 21.363281 -0.585938 20.90625 0.640625 C 20.15625 2.671875 18.847656 4.019531 16.984375 4.6875 C 15.128906 5.363281 12.925781 5.234375 10.375 4.296875 Z M 10.375 4.296875 "/></g></g><g style="fill:#000000;fill-opacity:1;"><g transform="translate(504.733115, 160.959068)"><path style="stroke:none" d="M 13.25 11.34375 L 1.5625 1.34375 L 16.5625 -16.171875 L 28.25 -6.171875 L 25.703125 -3.203125 L 17.3125 -10.375 L 13.625 -6.0625 L 21.125 0.359375 L 18.609375 3.296875 L 11.109375 -3.125 L 7.390625 1.21875 L 15.78125 8.390625 Z M 13.25 11.34375 "/></g></g><g style="fill:#000000;fill-opacity:1;"><g transform="translate(521.278687, 175.489864)"><path style="stroke:none" d="M 4.96875 9.953125 C 3.914062 8.023438 3.378906 6.285156 3.359375 4.734375 C 3.347656 3.179688 3.773438 1.804688 4.640625 0.609375 C 5.503906 -0.578125 6.695312 -1.59375 8.21875 -2.4375 L 21.09375 -9.484375 L 23.1875 -5.65625 L 10.3125 1.390625 C 9.476562 1.847656 8.804688 2.390625 8.296875 3.015625 C 7.796875 3.640625 7.539062 4.367188 7.53125 5.203125 C 7.519531 6.046875 7.804688 7.003906 8.390625 8.078125 C 8.992188 9.179688 9.648438 9.945312 10.359375 10.375 C 11.066406 10.800781 11.816406 10.96875 12.609375 10.875 C 13.410156 10.78125 14.226562 10.503906 15.0625 10.046875 L 27.9375 3 L 30.03125 6.828125 L 17.15625 13.875 C 15.632812 14.71875 14.140625 15.179688 12.671875 15.265625 C 11.203125 15.347656 9.816406 14.960938 8.515625 14.109375 C 7.210938 13.265625 6.03125 11.878906 4.96875 9.953125 Z M 4.96875 9.953125 "/></g></g><g style="fill:#000000;fill-opacity:1;"><g transform="translate(533.347178, 197.453241)"><path style="stroke:none" d="M 0.5 6.390625 L 0.15625 2.0625 L 23.140625 0.234375 L 23.71875 7.390625 L 6.359375 13.546875 L 24.46875 16.875 L 25.046875 24.109375 L 2.0625 25.9375 L 1.71875 21.609375 L 21.453125 20.046875 L 1.28125 16.125 L 0.9375 11.875 L 20.109375 4.828125 Z M 0.5 6.390625 "/></g></g></g></svg>